<svg xmlns="http://www.w3.org/2000/svg" width="15" height="15" viewBox="0 0 15 15">
  <defs>
    <style>
      .cls-1 {
        fill: #7d7d7d;
        fill-rule: evenodd;
      }
    </style>
  </defs>
  <path id="Shape_5_copy" data-name="Shape 5 copy" class="cls-1" d="M922.281,299H910.719A1.721,1.721,0,0,1,909,297.281V286.968a1.721,1.721,0,0,1,1.719-1.719h11.562A1.721,1.721,0,0,1,924,286.968v10.313A1.721,1.721,0,0,1,922.281,299Zm-11.562-12.813a0.783,0.783,0,0,0-.782.781v10.313a0.783,0.783,0,0,0,.782.781h11.562a0.782,0.782,0,0,0,.781-0.781V286.968a0.782,0.782,0,0,0-.781-0.781H910.719Zm12.812,3.75H909.469a0.469,0.469,0,1,1,0-.937h14.062A0.469,0.469,0,1,1,923.531,289.937Zm-10.937-2.187a0.47,0.47,0,0,1-.469-0.469v-2.813a0.469,0.469,0,0,1,.937,0v2.813A0.469,0.469,0,0,1,912.594,287.75Zm7.812,0a0.47,0.47,0,0,1-.469-0.469v-2.813a0.469,0.469,0,0,1,.938,0v2.813A0.47,0.47,0,0,1,920.406,287.75Z" transform="translate(-909 -284)"/>
</svg>
