<svg xmlns="http://www.w3.org/2000/svg" width="15" height="15" viewBox="0 0 15 15">
  <defs>
    <style>
      .cls-1 {
        fill: #7d7d7d;
        fill-rule: evenodd;
      }
    </style>
  </defs>
  <path id="Shape_2_copy_2" data-name="Shape 2 copy 2" class="cls-1" d="M1064.84,292.968h-4.68a0.469,0.469,0,1,0,0,.938h4.68A0.469,0.469,0,1,0,1064.84,292.968Zm0.94-2.812h-6.56a0.469,0.469,0,1,0,0,.937h6.56A0.469,0.469,0,1,0,1065.78,290.156ZM1062.5,285c-4.14,0-7.5,2.939-7.5,6.563a6.288,6.288,0,0,0,2.81,5.118V300l3.29-1.993a8.53,8.53,0,0,0,1.4.118c4.14,0,7.5-2.938,7.5-6.562S1066.64,285,1062.5,285Zm0,12.188a7.485,7.485,0,0,1-1.58-.172l-2.21,1.327,0.03-2.174a5.439,5.439,0,0,1-2.8-4.606c0-3.107,2.94-5.625,6.56-5.625s6.56,2.518,6.56,5.625S1066.12,297.187,1062.5,297.187Z" transform="translate(-1055 -285)"/>
</svg>
