<svg xmlns="http://www.w3.org/2000/svg" width="17" height="11.96" viewBox="0 0 17 11.96">
  <defs>
    <style>
      .cls-1 {
        fill-rule: evenodd;
      }
    </style>
  </defs>
  <path id="Forma_1" data-name="Forma 1" class="cls-1" d="M1463.9,2284.58l-5.32-5.63a0.339,0.339,0,0,0-.38-0.08,0.373,0.373,0,0,0-.22.35v0.75a0.4,0.4,0,0,0,.1.26l3.65,3.86h-14.38a0.368,0.368,0,0,0-.35.38v0.75a0.359,0.359,0,0,0,.35.37h14.38l-3.65,3.86a0.427,0.427,0,0,0-.1.27v0.75a0.365,0.365,0,0,0,.22.34,0.308,0.308,0,0,0,.13.03,0.341,0.341,0,0,0,.25-0.11l5.32-5.62A0.409,0.409,0,0,0,1463.9,2284.58Z" transform="translate(-1447 -2278.88)"/>
</svg>
