<svg 
 xmlns="http://www.w3.org/2000/svg"
 xmlns:xlink="http://www.w3.org/1999/xlink"
 width="15px" height="18px">
<path fill-rule="evenodd"  fill="rgb(125, 125, 125)"
 d="M14.113,17.165 C13.532,17.719 12.763,17.999 11.828,17.999 L3.171,17.999 C2.236,17.999 1.467,17.719 0.886,17.165 C0.298,16.604 -0.000,15.843 -0.000,14.904 C-0.000,14.543 0.012,14.185 0.036,13.841 C0.060,13.489 0.109,13.107 0.181,12.703 C0.254,12.296 0.348,11.911 0.461,11.560 C0.577,11.196 0.735,10.837 0.930,10.493 C1.133,10.136 1.371,9.826 1.638,9.570 C1.918,9.302 2.260,9.086 2.655,8.930 C3.049,8.773 3.486,8.694 3.954,8.694 C4.137,8.694 4.315,8.769 4.657,8.993 C4.871,9.133 5.118,9.292 5.391,9.466 C5.626,9.617 5.945,9.757 6.339,9.885 C6.724,10.009 7.114,10.072 7.499,10.072 C7.885,10.072 8.275,10.009 8.660,9.885 C9.054,9.757 9.373,9.617 9.608,9.466 C9.884,9.290 10.130,9.131 10.341,8.993 C10.684,8.770 10.862,8.694 11.045,8.694 C11.513,8.694 11.949,8.773 12.344,8.930 C12.739,9.086 13.081,9.302 13.361,9.569 C13.628,9.825 13.866,10.136 14.069,10.493 C14.264,10.837 14.422,11.196 14.538,11.560 C14.651,11.911 14.745,12.296 14.818,12.703 C14.890,13.107 14.939,13.490 14.964,13.840 C14.988,14.183 15.000,14.541 15.000,14.904 C15.000,15.844 14.702,16.604 14.113,17.165 ZM13.912,13.914 L13.912,13.914 C13.891,13.601 13.846,13.257 13.781,12.889 C13.716,12.528 13.633,12.189 13.535,11.881 C13.441,11.587 13.312,11.295 13.153,11.014 C13.001,10.746 12.826,10.517 12.632,10.332 C12.452,10.158 12.224,10.017 11.956,9.910 C11.708,9.812 11.429,9.758 11.126,9.750 C11.089,9.770 11.023,9.807 10.917,9.877 C10.700,10.018 10.458,10.175 10.175,10.356 C9.864,10.554 9.463,10.734 8.984,10.888 C8.494,11.047 7.995,11.127 7.499,11.127 C7.004,11.127 6.504,11.047 6.015,10.888 C5.536,10.734 5.135,10.554 4.824,10.356 C4.548,10.179 4.299,10.018 4.082,9.877 C3.976,9.807 3.910,9.770 3.873,9.750 C3.570,9.758 3.291,9.812 3.043,9.910 C2.775,10.017 2.547,10.158 2.367,10.332 C2.173,10.517 1.998,10.746 1.846,11.014 C1.687,11.295 1.558,11.587 1.464,11.881 C1.366,12.189 1.283,12.528 1.218,12.890 C1.153,13.256 1.108,13.600 1.087,13.914 C1.065,14.234 1.053,14.567 1.053,14.904 C1.053,15.552 1.236,16.043 1.613,16.401 C1.997,16.767 2.506,16.945 3.171,16.945 L11.828,16.945 C12.493,16.945 13.003,16.767 13.387,16.401 C13.763,16.043 13.946,15.553 13.946,14.904 C13.946,14.566 13.935,14.233 13.912,13.914 ZM7.386,8.670 C6.197,8.670 5.167,8.243 4.325,7.400 C3.483,6.557 3.056,5.526 3.056,4.335 C3.056,3.144 3.483,2.112 4.325,1.270 C5.166,0.427 6.196,-0.000 7.386,-0.000 C8.576,-0.000 9.606,0.427 10.448,1.270 C11.290,2.112 11.717,3.144 11.717,4.335 C11.717,5.526 11.290,6.557 10.448,7.400 C9.606,8.243 8.576,8.670 7.386,8.670 ZM9.703,2.015 C9.057,1.369 8.299,1.055 7.386,1.055 C6.473,1.055 5.716,1.369 5.070,2.015 C4.424,2.662 4.110,3.421 4.110,4.335 C4.110,5.249 4.424,6.008 5.070,6.654 C5.716,7.301 6.474,7.615 7.386,7.615 C8.299,7.615 9.057,7.301 9.703,6.654 C10.349,6.007 10.663,5.249 10.663,4.335 C10.663,3.421 10.349,2.662 9.703,2.015 Z"/>
</svg>